# xmcd
#
# Track frame offsets:
#       150
#       12240
#       24535
#       34765
#       46417
#       58615
#       79432
#       96720
#       111247
#       125025
#       136397
#       150180
#       161247
#       170155
#       182277
#       192545
#
# Disc length: 2766 seconds
#
# Revision: 1
# Processed by: cddbd v1.4PL0 Copyright (c) Steve Scherf et al.
# Submitted via: MusiCat 1.1
#
DISCID=e00acc10
DTITLE=Free Design - Kites Are Fun
DYEAR=1900
DGENRE=
TTITLE0=Kites Are Fun
TTITLE1=I Found Love
TTITLE2=Bubbles
TTITLE3=My Brother Woody
TTITLE4=2002 - A Hit Song
TTITLE5=Stay Another Season
TTITLE6=Felt So Good
TTITLE7=Kije's Ouija
TTITLE8=My Very Own Angel
TTITLE9=Never Tell The World
TTITLE10=A Man And A Woman
TTITLE11=Love You
TTITLE12=Howdjadoo (Fly Me Down)
TTITLE13=You Could Be Born Again
TTITLE14=Now Is The Time
TTITLE15=You Are My Lover
EXTD=0\n\n\n
EXTT0=
EXTT1=
EXTT2=
EXTT3=
EXTT4=
EXTT5=
EXTT6=
EXTT7=
EXTT8=
EXTT9=
EXTT10=
EXTT11=
EXTT12=
EXTT13=
EXTT14=
EXTT15=
PLAYORDER=
